inDegrees=no
num_controls=7
num_derivatives=13
num_iterations=90
num_multipliers=7
num_parameters=0
num_slacks=7
num_states=26
objective=0.430244
objective_accelerations=0.052956
objective_balance=0.001237
objective_effort=0.013274
objective_height=0.356521
objective_ligament=0.006256
solver_duration=1374.090212
status=Solve_Succeeded
success=true
DataType=double
version=3
OpenSimVersion=4.5
endheader
time	/jointset/ground_pelvis/pelvis_tilt/value	/jointset/ground_pelvis/pelvis_tx/value	/jointset/ground_pelvis/pelvis_ty/value	/jointset/hip_l/hip_flexion_l/value	/jointset/hip_l/hip_adduction_l/value	/jointset/hip_l/hip_rotation_l/value	/jointset/back/lumbar_extension/value	/jointset/patellofemoral_l/patellar_flexion_l/value	/jointset/knee_l/knee_flexion_l/value	/jointset/knee_l/knee_adduction_l/value	/jointset/knee_l/knee_rotation_l/value	/jointset/ankle_l/ankle_angle_l/value	/jointset/subtalar_l/subtalar_angle_l/value	/jointset/ground_pelvis/pelvis_tilt/speed	/jointset/ground_pelvis/pelvis_tx/speed	/jointset/ground_pelvis/pelvis_ty/speed	/jointset/hip_l/hip_flexion_l/speed	/jointset/hip_l/hip_adduction_l/speed	/jointset/hip_l/hip_rotation_l/speed	/jointset/back/lumbar_extension/speed	/jointset/patellofemoral_l/patellar_flexion_l/speed	/jointset/knee_l/knee_flexion_l/speed	/jointset/knee_l/knee_adduction_l/speed	/jointset/knee_l/knee_rotation_l/speed	/jointset/ankle_l/ankle_angle_l/speed	/jointset/subtalar_l/subtalar_angle_l/speed	/forceset/tau_hip_flexion_l	/forceset/tau_hip_adduction_l	/forceset/tau_hip_rotation_l	/forceset/tau_knee_flexion_l	/forceset/tau_ankle_angle_l	/forceset/tau_subtalar_angle_l	/forceset/tau_lumbar_extension	lambda_cid13_p0	lambda_cid13_p1	lambda_cid13_p2	lambda_cid13_p3	lambda_cid13_p4	lambda_cid13_p5	lambda_cid14_p0	/jointset/ground_pelvis/pelvis_tilt/accel	/jointset/ground_pelvis/pelvis_tx/accel	/jointset/ground_pelvis/pelvis_ty/accel	/jointset/hip_l/hip_flexion_l/accel	/jointset/hip_l/hip_adduction_l/accel	/jointset/hip_l/hip_rotation_l/accel	/jointset/back/lumbar_extension/accel	/jointset/patellofemoral_l/patellar_flexion_l/accel	/jointset/knee_l/knee_flexion_l/accel	/jointset/knee_l/knee_adduction_l/accel	/jointset/knee_l/knee_rotation_l/accel	/jointset/ankle_l/ankle_angle_l/accel	/jointset/subtalar_l/subtalar_angle_l/accel	gamma_cid13_p0	gamma_cid13_p1	gamma_cid13_p2	gamma_cid13_p3	gamma_cid13_p4	gamma_cid13_p5	gamma_cid14_p0
1	-0.3904535329640109	0.008657734595934611	0.6306459911711707	1.544847528482169	-0.3534351401292331	0.1175194101528151	-0.4363247023813702	1.42218493911197	1.422184939111938	0.03806551865445002	-0.1745238018100878	0.4350701208342943	0.23839964950089	-0.1376046504735119	0.00348961447182244	0.03274639504627318	0.02253576328248584	0.001534442705514333	-0.0603929681868597	-7.190024915670993e-05	-0.1552229005437611	-0.1552229005437633	0.001124033399285356	-3.903027474721042e-05	-0.05301375081268693	-0.0285049320978865	-0.2089338727050687	0.05177454129848893	-0.007468007009552895	-0.2893748942577451	-0.02986538724098686	0.00804765618723755	0.190883349858547	-41.41149982745531	9.629265902756037	-8.525139002856603	5.027433062244952	-532.9871638459534	-62.19008549745477	-0.02438170564774919	1.365414358751981	0.2165415783376888	1.779085115838049	-5.955033448086321	-0.1494764219069892	-1.496203001240719	-0.0278754763748522	-5.25913782724688	-5.259137827246836	-0.7241036734257094	-0.02714247832825034	-1.121022097570587	-0.8934365099775735	-2.618870111089775e-09	-1.048757241834238e-07	-1.642529278925747e-08	-6.116405025014964e-09	-5.216500802044295e-09	-1.092393868897413e-07	-1.129321642403685e-09
1.01	-0.3917619689941473	0.008703437802613529	0.6310621872275834	1.544776224872529	-0.3534267267755332	0.1168419650419686	-0.4363258893740932	1.420370147504458	1.420370147504436	0.03804018799894629	-0.1745241926794412	0.4344839144733916	0.2380708417980213	-0.1240725450320601	0.005653910168694275	0.05048357732667649	-0.03678685951743294	0.0001540815622910586	-0.07508879421392738	-0.0001606467835867225	-0.2077311353559228	-0.2077311353559042	-0.006185556181189804	-3.769880711449476e-05	-0.06424051501539157	-0.0372479368742826	-0.2094307093795463	0.05187425188516304	-0.007519022727748167	-0.2882050773770306	-0.03045337211884793	0.008076665638961176	0.1911453898771311	-41.56625230702152	9.593581336782856	-8.462130288065818	5.037451956280486	-532.7768244057427	-62.02593672435881	-0.02440248383521354	1.348610543501561	0.2168038548728896	1.769647112002456	-5.919432585908714	-0.1314317729273195	-1.455192782438706	0.001353484777212514	-5.246023076942945	-5.246023076939849	-0.7337088173557688	0.01397472712769207	-1.125459470305916	-0.8634073405155315	-3.359179986239597e-09	-1.355663453194252e-07	-2.396239378366018e-08	-1.098182767122507e-08	-9.138861104309233e-09	-1.36388993937803e-07	-1.945998866379414e-09
1.02	-0.3929347835885378	0.008770870024163354	0.6316554775723726	1.544111983856898	-0.3534319401957451	0.1160177775950512	-0.4363278182867957	1.418030402195076	1.418030402195064	0.03794189700423466	-0.1745245294805545	0.4337850492927247	0.2376548690715797	-0.1104803633242165	0.007835417446003785	0.06816525272152098	-0.09605171791591378	-0.00119091207682469	-0.08974143540095142	-0.00022028424784384	-0.2602136409177701	-0.2602136409177309	-0.01346803444155934	-2.821662673560597e-05	-0.07554551476551699	-0.04593793681247509	-0.2099275460540208	0.05197396247183508	-0.007570038445962428	-0.2870352604963173	-0.03104135699671004	0.008105675090681132	0.1914074298957182	-41.72587225667601	9.556779739814798	-8.39669395545306	5.048877988044323	-532.6889661082998	-61.86513158487172	-0.02442617677995543	1.377429612030317	0.2199838944252225	1.767983738726285	-5.94348056779873	-0.1424029210854813	-1.487566033231991	-0.02205366234020709	-5.253991977184008	-5.253991977184013	-0.7186814094045834	-0.02551233577901038	-1.136669207054742	-0.8828355423368466	-4.225193082843777e-09	-1.656989859267549e-07	-3.166683491983752e-08	-1.58306534577158e-08	-1.257018847131487e-08	-1.602152928492935e-07	-3.105624765911789e-09
1.03	-0.3939713509443277	0.008860263030474633	0.6324252222219363	1.542855486399354	-0.3534504220381763	0.1150473324816326	-0.4363300984003227	1.41516611901335	1.415166119013363	0.03777094726102177	-0.1745247353214879	0.4329727961826191	0.2371523274248528	-0.09682049331603716	0.01005205342126891	0.08576599199955424	-0.1552282024409471	-0.002499545526652343	-0.1043356671675692	-0.0002210687155122269	-0.3126229645617387	-0.3126229645617195	-0.02071457810063419	-1.303230078234933e-05	-0.08691268028012514	-0.05455563088811427	-0.210218148911486	0.05203135004803273	-0.007604538694135794	-0.2856851971956421	-0.03144906279530372	0.008164072290492609	0.1915524444008697	-41.79982677629971	9.485088368605634	-8.317554297400919	4.959688631297281	-532.2972882670168	-61.71280537982275	-0.02445483487533914	1.362157688243189	0.2238297245787865	1.753463023522261	-5.901797021005554	-0.1241963516644166	-1.44357795522173	0.01310962203038506	-5.231397067337969	-5.231397067340953	-0.7265609050504978	0.01500238059384568	-1.137886164749774	-0.848986205466289	-5.092488865381166e-09	-1.958259328552207e-07	-3.937298360848194e-08	-2.067930988849511e-08	-1.59965052981648e-08	-1.840076804532679e-07	-4.268750141725356e-09
1.04	-0.3948709412014296	0.008972087651638878	0.6333704430645166	1.541007811171327	-0.3534818107740531	0.113931299809179	-0.4363319462662605	1.411778343693317	1.411778343693357	0.03752774806903394	-0.1745247956064004	0.4320466422291501	0.2365640588643116	-0.08308494358660017	0.01232174041659675	0.1032604913248012	-0.2142872720119787	-0.003772290765800293	-0.1188589472079891	-0.0001338347427574913	-0.3649120685790951	-0.3649120685790956	-0.02791792419537177	8.945776247204024e-07	-0.09832568343817047	-0.0630833195753072	-0.2105087517689719	0.05208873762422789	-0.007639038942340929	-0.2843351338949684	-0.03185676859389465	0.008222469490302281	0.1916974589060005	-41.87883411933908	9.412388674846779	-8.236091461684076	4.872239483767847	-532.0286442584425	-61.56448034187311	-0.02448649272878415	1.392565556281851	0.2305940984377653	1.746735748169022	-5.919997576998385	-0.1352252789495393	-1.473375687992415	-0.004449974255348325	-5.229948051861594	-5.229948051861546	-0.7100418965371288	-0.02576382528824488	-1.145836735742183	-0.8648344646475953	-6.300235248992069e-09	-2.272878184144162e-07	-4.483265359521061e-08	-2.495905209648843e-08	-1.952859289406687e-08	-2.077049974250247e-07	-5.894639111916064e-09
1.05	-0.3956331766875459	0.009106947339241025	0.634489963091257	1.538570619004557	-0.3535257252914693	0.1126704329506832	-0.4363312784222858	1.407868409796019	1.407868409796082	0.0372127833779989	-0.1745246868783405	0.4310061738972568	0.235891050979289	-0.0693882686462198	0.01466638226034919	0.1206143216717137	-0.2730824111537307	-0.005004038321207548	-0.1332977045646934	0.0004035756485051806	-0.4170418620588197	-0.4170418620588191	-0.03506575399324944	2.089578525551319e-05	-0.1097713542281607	-0.07149737163023315	-0.2110754184221439	0.05223235727918733	-0.007672720311069844	-0.28245299723589	-0.03264605163652141	0.008288039633823149	0.1921349889221188	-42.06735343564859	9.331779833411778	-8.125989798760868	4.802971472116147	-531.6624450750254	-61.34591339219094	-0.02452363852999006	1.35430056157912	0.2388211135647043	1.725323176704586	-5.848960376742115	-0.1161488670201686	-1.42663761882341	0.1032623610957728	-5.199566149220645	-5.199566149220519	-0.7157926745709043	0.01586395129702398	-1.144451326318999	-0.8265104218702576	-7.518620713886515e-09	-2.587914208058219e-07	-5.022212112250442e-08	-2.92210157350197e-08	-2.306398582650181e-08	-2.313993434395246e-07	-7.534989444431058e-09
1.06	-0.3962592290045251	0.009265737822524841	0.6357821447212172	1.535547537787583	-0.3535817571590751	0.1112656761467594	-0.4363211513112883	1.403438163733286	1.403438163733365	0.0368266125583443	-0.1745243817667049	0.4298511450423244	0.235134538604526	-0.05584830975931812	0.01710789955293063	0.1377928119687189	-0.3314650820546223	-0.006195760803970253	-0.1476369362939556	0.001758018650912806	-0.468974501666255	-0.4689745016662538	-0.04215914991743967	4.017129321754916e-05	-0.1212377880458137	-0.07978421752336573	-0.2116420850752467	0.05237597693415982	-0.007706401679831283	-0.2805708605768118	-0.03343533467915553	0.008353609777361513	0.1925725189383083	-42.26116486563507	9.250318755058771	-8.013720280875132	4.735179181704516	-531.4209393470395	-61.13219710997924	-0.02456387163296442	1.361222345586114	0.2499691882035668	1.711667738187583	-5.837503928826347	-0.1272202644206281	-1.453470562503971	0.1589565479734565	-5.19051727740375	-5.190517277403773	-0.6991551217996432	-0.02590896522199751	-1.149989341274751	-0.8393932322889245	-9.536088544742319e-09	-2.883814027603853e-07	-5.758706856455296e-08	-3.101993793494097e-08	-2.792608332809241e-08	-2.547093601637816e-07	-8.49693953811536e-09
1.07	-0.3967508492190397	0.009449548680368909	0.6372452036494535	1.531942746064525	-0.353649530571899	0.1097180413705111	-0.4362929716485092	1.398489539116691	1.3984895391167	0.03636973476342838	-0.1745238985941342	0.4285814450209471	0.2342958335201491	-0.04252391718465742	0.0196824572630184	0.1547863335390982	-0.3894155692896898	-0.007354179092305049	-0.1618722294285578	0.004061094421012094	-0.5207216597906936	-0.5207216597906961	-0.04921118263864167	5.61209828489174e-05	-0.1326962669962509	-0.08793102719489627	-0.2119927406559514	0.05247444286531941	-0.007710090612501985	-0.2788217483400126	-0.03367024134142883	0.008419543499938009	0.1929403332448152	-42.26155957271574	9.148375713566464	-7.913653479781666	4.415890624787682	-531.0709050206729	-60.94949511756914	-0.02460879528333789	1.31081924581611	0.2654202883217027	1.688291704042156	-5.762168324359863	-0.1094220587321586	-1.405914735219375	0.2934601687803867	-5.162498903015432	-5.162498903016004	-0.7074785702079988	0.01526465305186505	-1.142901605427972	-0.7984004221241772	-1.159606075676628e-08	-3.178695963938401e-07	-6.505709472547143e-08	-3.268784729238297e-08	-3.285875022165939e-08	-2.779989338406852e-07	-9.422804512712919e-09
